<svg version="1.1" viewBox="0.0 0.0 128.0 128.0" fill="none" stroke="none" stroke-linecap="square" stroke-miterlimit="10" xmlns:xlink="http://www.w3.org/1999/xlink" xmlns="http://www.w3.org/2000/svg"><clipPath id="p.0"><path d="m0 0l128.0 0l0 128.0l-128.0 0l0 -128.0z" clip-rule="nonzero"/></clipPath><g clip-path="url(#p.0)"><path fill="#000000" fill-opacity="0.0" d="m0 0l128.0 0l0 128.0l-128.0 0z" fill-rule="evenodd"/><g filter="url(#shadowFilter-p.1)"><use xlink:href="#p.1" transform="matrix(1.0 0.0 0.0 1.0 0.0 2.0)"/></g><defs><filter id="shadowFilter-p.1" filterUnits="userSpaceOnUse"><feGaussianBlur in="SourceAlpha" stdDeviation="17.5" result="blur"/><feComponentTransfer in="blur" color-interpolation-filters="sRGB"><feFuncR type="linear" slope="0" intercept="0.06666667"/><feFuncG type="linear" slope="0" intercept="0.33333334"/><feFuncB type="linear" slope="0" intercept="0.8"/><feFuncA type="linear" slope="0.56" intercept="0"/></feComponentTransfer></filter></defs><g id="p.1"><path fill="#cfe2f3" d="m12.575993 123.939705c6.915407 -1.0628128 78.00673 -49.37297 82.985916 -61.45051c4.979187 -12.077541 -58.08997 -1.255928 -53.110783 -11.014725c4.979191 -9.7588005 89.44043 -47.827915 82.985916 -47.53807c-6.4545135 0.28984237 -109.81841 38.45551 -121.713005 49.277122c-11.894596 10.821617 48.870102 3.8648643 50.34543 15.652557c1.4753304 11.787697 -48.40887 56.136444 -41.49346 55.073624z" fill-rule="evenodd"/><path stroke="#1155cc" stroke-width="4.0" stroke-linejoin="round" stroke-linecap="butt" d="m12.575993 123.939705c6.915407 -1.0628128 78.00673 -49.37297 82.985916 -61.45051c4.979187 -12.077541 -58.08997 -1.255928 -53.110783 -11.014725c4.979191 -9.7588005 89.44043 -47.827915 82.985916 -47.53807c-6.4545135 0.28984237 -109.81841 38.45551 -121.713005 49.277122c-11.894596 10.821617 48.870102 3.8648643 50.34543 15.652557c1.4753304 11.787697 -48.40887 56.136444 -41.49346 55.073624z" fill-rule="evenodd"/></g><g filter="url(#shadowFilter-p.2)"><use xlink:href="#p.2" transform="matrix(1.0 0.0 0.0 1.0 0.0 2.0)"/></g><defs><filter id="shadowFilter-p.2" filterUnits="userSpaceOnUse"><feGaussianBlur in="SourceAlpha" stdDeviation="17.5" result="blur"/><feComponentTransfer in="blur" color-interpolation-filters="sRGB"><feFuncR type="linear" slope="0" intercept="0.06666667"/><feFuncG type="linear" slope="0" intercept="0.33333334"/><feFuncB type="linear" slope="0" intercept="0.8"/><feFuncA type="linear" slope="0.56" intercept="0"/></feComponentTransfer></filter></defs><g id="p.2"><path fill="#000000" fill-opacity="0.0" d="m6.742463 46.716534l116.314964 0l0 62.55118l-116.314964 0z" fill-rule="evenodd"/><path fill="#ff9900" d="m40.355007 83.104004q0.484375 0 0.765625 0.453125q0.28125 0.453125 0.28125 1.234375q0 1.453125 -0.703125 2.3125q-2.09375 2.5 -4.0625 3.515625q-1.953125 1.0 -4.718748 1.0q-1.9375 0 -3.578125 -0.484375q-1.640625 -0.484375 -4.0 -1.453125q-2.125 -0.9375 -4.109375 -1.53125q-1.890625 3.46875 -5.703126 3.46875q-2.09375 0 -3.34375 -0.953125q-1.25 -0.953125 -1.25 -2.4375q0 -1.84375 1.75 -3.046875q1.765625 -1.21875 4.671876 -1.21875l0.484375 0l0.671875 -10.859375q0.21875 -3.734375 1.34375 -6.15625q1.125 -2.421875 3.09375 -4.140629q1.71875 -1.5 3.921875 -2.265625q2.203125 -0.765625 4.671875 -0.765625q4.031248 0 6.187498 2.09375q2.171875 2.09375 2.171875 5.453129q0 2.265625 -0.828125 3.671875q-0.8125 1.40625 -2.265625 1.40625q-1.046875 0 -1.65625 -0.5q-0.59375 -0.515625 -0.59375 -1.453125q0 -0.328125 0.15625 -1.21875q0.21875 -1.046875 0.21875 -1.875q0 -1.5625 -0.921875 -2.46875q-0.90625 -0.9218788 -2.765623 -0.9218788q-3.296875 0 -5.09375 2.1406288q-1.78125 2.140625 -2.265625 6.734375l-0.859375 8.484375q-0.1875 1.78125 -0.484375 3.09375q2.390625 0.40625 5.96875 1.296875q2.09375 0.53125 3.203125 0.765625q1.125 0.21875 1.9843731 0.21875q2.171875 0 3.71875 -0.734375q1.546875 -0.734375 2.9375 -2.328125q0.4375 -0.53125 1.0 -0.53125zm20.046066 -3.125q0.484375 0 0.75 0.484375q0.265625 0.484375 0.265625 1.21875q0 1.796875 -1.09375 2.140625q-2.234375 0.78125 -4.921875 0.890625q-0.703125 3.140625 -2.796875 5.03125q-2.09375 1.875 -4.75 1.875q-2.234375 0 -3.828125 -1.078125q-1.578125 -1.09375 -2.40625 -2.875q-0.8125 -1.796875 -0.8125 -3.890625q0 -2.828125 1.078125 -5.046875q1.078125 -2.234375 2.984375 -3.484375q1.90625 -1.25 4.21875 -1.25q2.84375 0 4.578125 1.96875q1.734375 1.953125 2.03125 4.828125q1.75 -0.109375 4.1875 -0.75q0.296875 -0.0625 0.515625 -0.0625zm-12.25 7.6875q1.203125 0 2.078125 -0.96875q0.875 -0.984375 1.171875 -2.8125q-1.15625 -0.78125 -1.78125 -2.046875q-0.609375 -1.265625 -0.609375 -2.6875q0 -0.59375 0.125 -1.1875l-0.1875 0q-1.5 0 -2.5 1.4375q-0.984375 1.4375 -0.984375 4.046875q0 2.046875 0.796875 3.140625q0.8125 1.078125 1.890625 1.078125zm29.163166 -4.484375q0.484375 0 0.765625 0.46875q0.28125 0.46875 0.28125 1.171875q0 0.859375 -0.265625 1.34375q-0.265625 0.484375 -0.828125 0.859375q-3.203125 2.171875 -4.703125 3.21875l-2.375 1.59375q-1.421875 7.734375 -3.71875 12.15625q-2.296875 4.421875 -5.843754 4.421875q-1.90625 0 -3.109375 -1.1875q-1.1875 -1.171875 -1.1875 -3.0625q0 -2.65625 2.09375 -5.703125q2.09375 -3.03125 7.843754 -7.484375l0.21875 -1.453125q-0.640625 1.015625 -1.671875 1.5625q-1.0156288 0.53125 -2.0156288 0.53125q-2.328125 0 -3.703125 -1.671875q-1.375 -1.6875 -1.375 -4.40625q0 -3.0 1.375 -5.65625q1.375 -2.671875 3.671875 -4.296875q2.2968788 -1.625 4.875004 -1.625q0.828125 0 1.09375 0.328125q0.28125 0.3125 0.46875 1.125q0.71875 -0.140625 1.65625 -0.140625q0.921875 0 1.3125 0.28125q0.390625 0.265625 0.390625 1.09375q0 0.453125 -0.03125 0.703125q-0.15625 1.15625 -0.9375 5.859375q-0.140625 0.90625 -0.3125 1.96875q-0.171875 1.0625 -0.359375 2.25q2.875 -2.234375 5.53125 -3.953125q0.484375 -0.296875 0.859375 -0.296875zm-13.171875 4.671875q0.84375 0 1.625 -1.046875q0.796875 -1.046875 1.125 -2.984375l1.203125 -6.390625q-1.53125 0.046875 -2.84375 1.1875q-1.2968788 1.125 -2.0937538 3.0q-0.78125 1.859375 -0.78125 3.953125q0 1.15625 0.46875 1.71875q0.46875 0.5625 1.2968788 0.5625zm-3.1093788 16.9375q0.9375 0 2.109375 -2.234375q1.1718788 -2.234375 2.2656288 -7.125q-2.8750038 2.453125 -4.156254 4.4375q-1.265625 1.984375 -1.265625 3.46875q0 0.640625 0.234375 1.046875q0.25 0.40625 0.8125 0.40625zm19.532078 -33.21875q-1.578125 0 -2.359375 -0.71875q-0.78125 -0.734375 -0.78125 -2.046875q0 -1.296875 1.015625 -2.171875q1.03125 -0.890625 2.5625 -0.890625q1.390625 0 2.25 0.671875q0.859375 0.671875 0.859375 1.90625q0 1.5 -0.984375 2.375q-0.96875 0.875 -2.5625 0.875zm-0.296875 20.046875q-2.4375 0 -3.546875 -1.71875q-1.09375 -1.71875 -1.09375 -4.546875q0 -1.6875 0.421875 -4.3125q0.4375 -2.640625 1.109375 -4.90625q0.34375 -1.203125 0.890625 -1.640625q0.5625 -0.453125 1.796875 -0.453125q1.90625 0 1.90625 1.265625q0 0.9375 -0.703125 4.328125q-0.90625 4.109375 -0.90625 5.5625q0 1.125 0.296875 1.71875q0.3125 0.59375 1.015625 0.59375q0.671875 0 1.671875 -0.921875q1.015625 -0.9375 2.6875 -2.953125q0.453125 -0.53125 1.015625 -0.53125q0.484375 0 0.765625 0.453125q0.28125 0.453125 0.28125 1.234375q0 1.484375 -0.71875 2.3125q-3.6875 4.515625 -6.890625 4.515625zm7.2296295 0q-1.40625 0 -2.0 -1.484375q-0.578125 -1.5 -0.578125 -4.78125q0 -4.859375 1.390625 -9.21875q0.328125 -1.09375 1.09375 -1.59375q0.765625 -0.5 2.15625 -0.5q0.734375 0 1.03125 0.1875q0.3125 0.1875 0.3125 0.703125q0 0.59375 -0.5625 2.6875q-0.375 1.5 -0.609375 2.625q-0.21875 1.109375 -0.359375 2.75q1.234375 -3.203125 2.75 -5.21875q1.53125 -2.015625 3.0 -2.875q1.484375 -0.859375 2.71875 -0.859375q2.421875 0 2.421875 2.421875q0 1.453125 -0.8125 5.265625q-0.71875 3.25 -0.71875 4.296875q0 1.484375 1.09375 1.484375q0.734375 0 1.765625 -0.90625q1.03125 -0.921875 2.75 -2.96875q0.4375 -0.53125 1.0 -0.53125q0.484375 0 0.765625 0.453125q0.28125 0.453125 0.28125 1.234375q0 1.484375 -0.703125 2.3125q-1.609375 1.96875 -3.46875 3.25q-1.84375 1.265625 -4.1875 1.265625q-1.90625 0 -2.875 -1.09375q-0.96875 -1.109375 -0.96875 -3.203125q0 -1.046875 0.515625 -3.734375q0.484375 -2.34375 0.484375 -3.25q0 -0.59375 -0.40625 -0.59375q-0.484375 0 -1.359375 1.25q-0.875 1.25 -1.796875 3.3125q-0.90625 2.046875 -1.46875 4.328125q-0.40625 1.75 -0.953125 2.375q-0.546875 0.609375 -1.703125 0.609375zm28.530441 -16.34375q0.921875 0 1.3125 0.28125q0.390625 0.265625 0.390625 1.09375q0 0.453125 -0.03125 0.703125q-0.15625 1.15625 -0.9375 5.984375q-0.5625 3.234375 -0.703125 4.28125q-1.421875 9.640625 -3.828125 15.21875q-2.40625 5.578125 -6.4375 5.578125q-1.90625 0 -3.109375 -1.1875q-1.1875 -1.171875 -1.1875 -3.0625q0 -2.65625 2.09375 -5.703125q2.09375 -3.03125 7.84375 -7.484375l0.21875 -1.453125q-0.640625 1.015625 -1.671875 1.5625q-1.015625 0.53125 -2.015625 0.53125q-2.328125 0 -3.703125 -1.671875q-1.375 -1.6875 -1.375 -4.40625q0 -3.0 1.375 -5.65625q1.375 -2.671875 3.671875 -4.296875q2.296875 -1.625 4.875 -1.625q0.828125 0 1.09375 0.328125q0.28125 0.3125 0.46875 1.125q0.71875 -0.140625 1.65625 -0.140625zm-6.71875 12.578125q0.84375 0 1.625 -1.046875q0.796875 -1.046875 1.125 -2.984375l1.203125 -6.390625q-1.53125 0.046875 -2.84375 1.1875q-1.296875 1.125 -2.09375 3.0q-0.78125 1.859375 -0.78125 3.953125q0 1.15625 0.46875 1.71875q0.46875 0.5625 1.296875 0.5625zm-3.109375 16.9375q0.9375 0 2.109375 -2.234375q1.171875 -2.234375 2.265625 -7.125q-2.875 2.453125 -4.15625 4.4375q-1.265625 1.984375 -1.265625 3.46875q0 0.640625 0.234375 1.046875q0.25 0.40625 0.8125 0.40625z" fill-rule="nonzero"/></g></g></svg>